<svg xmlns="http://www.w3.org/2000/svg" xmlns:xlink="http://www.w3.org/1999/xlink" version="1.1" width="256" height="256" viewBox="0 0 256 256" xml:space="preserve">
  <defs>
  </defs>
  <g style="stroke: none; stroke-width: 0; stroke-dasharray: none; stroke-linecap: butt; stroke-linejoin: miter; stroke-miterlimit: 10; fill: none; fill-rule: nonzero; opacity: 1;" transform="translate(1.4065934065934016 1.4065934065934016) scale(2.81 2.81)" >
  <path d="M 2.571 30 l 84.859 0 C 81.254 12.534 64.611 0.015 45.034 0 l -0.068 0 C 25.389 0.015 8.745 12.534 2.571 30 z" style="stroke: none; stroke-width: 1; stroke-dasharray: none; stroke-linecap: butt; stroke-linejoin: miter; stroke-miterlimit: 10; fill: rgb(255,204,0); fill-rule: nonzero; opacity: 1;" transform=" matrix(1 0 0 1 0 0) " stroke-linecap="round" />
  <path d="M 87.429 60 L 2.571 60 C 8.75 77.476 25.408 90 45 90 S 81.25 77.476 87.429 60 z" style="stroke: none; stroke-width: 1; stroke-dasharray: none; stroke-linecap: butt; stroke-linejoin: miter; stroke-miterlimit: 10; fill: rgb(207,20,43); fill-rule: nonzero; opacity: 1;" transform=" matrix(1 0 0 1 0 0) " stroke-linecap="round" />
  <path d="M 87.429 60 C 89.088 55.307 90 50.261 90 45 c 0 -5.261 -0.912 -10.307 -2.571 -15 L 2.571 30 C 0.911 34.693 0 39.739 0 45 c 0 5.261 0.912 10.308 2.571 15 L 87.429 60 z" style="stroke: none; stroke-width: 1; stroke-dasharray: none; stroke-linecap: butt; stroke-linejoin: miter; stroke-miterlimit: 10; fill: rgb(0,36,125); fill-rule: nonzero; opacity: 1;" transform=" matrix(1 0 0 1 0 0) " stroke-linecap="round" />
  <text x="45" y="25" text-anchor="middle" style="font-size: 12px; font-family: Arial, sans-serif; fill: white; font-weight: bold; text-shadow: 1px 1px 2px rgba(0,0,0,0.5);">Tu Cambio</text>
  <polygon points="50.4,36.07 50.04,33.5 48.83,35.79 46.27,35.34 48.07,37.21 46.85,39.5 49.19,38.36 50.99,40.23 50.63,37.66 52.96,36.52 " style="stroke: none; stroke-width: 1; stroke-dasharray: none; stroke-linecap: butt; stroke-linejoin: miter; stroke-miterlimit: 10; fill: rgb(255,255,255); fill-rule: nonzero; opacity: 1;" transform="  matrix(1 0 0 1 0 0) "/>
  <polygon points="58.73,41.08 61.3,40.81 59.06,39.52 59.6,36.98 57.67,38.71 55.42,37.42 56.48,39.79 54.55,41.52 57.13,41.25 58.19,43.62 " style="stroke: none; stroke-width: 1; stroke-dasharray: none; stroke-linecap: butt; stroke-linejoin: miter; stroke-miterlimit: 10; fill: rgb(255,255,255); fill-rule: nonzero; opacity: 1;" transform="  matrix(1 0 0 1 0 0) "/>
  <polygon points="65.16,47.07 67.68,47.7 66.01,45.71 67.39,43.51 64.98,44.48 63.31,42.5 63.49,45.09 61.09,46.06 63.61,46.69 63.79,49.27 " style="stroke: none; stroke-width: 1; stroke-dasharray: none; stroke-linecap: butt; stroke-linejoin: miter; stroke-miterlimit: 10; fill: rgb(255,255,255); fill-rule: nonzero; opacity: 1;" transform="  matrix(1 0 0 1 0 0) "/>
  <polygon points="70.43,53.92 72.47,52.32 69.88,52.41 68.99,49.97 68.28,52.47 65.68,52.56 67.83,54.01 67.12,56.5 69.16,54.9 71.31,56.35 " style="stroke: none; stroke-width: 1; stroke-dasharray: none; stroke-linecap: butt; stroke-linejoin: miter; stroke-miterlimit: 10; fill: rgb(255,255,255); fill-rule: nonzero; opacity: 1;" transform="  matrix(1 0 0 1 0 0) "/>
  <polygon points="41.17,35.79 39.96,33.5 39.6,36.07 37.04,36.52 39.37,37.66 39.01,40.23 40.81,38.36 43.15,39.5 41.93,37.21 43.73,35.34 " style="stroke: none; stroke-width: 1; stroke-dasharray: none; stroke-linecap: butt; stroke-linejoin: miter; stroke-miterlimit: 10; fill: rgb(255,255,255); fill-rule: nonzero; opacity: 1;" transform="  matrix(1 0 0 1 0 0) "/>
  <polygon points="33.52,39.79 34.58,37.42 32.33,38.71 30.4,36.98 30.94,39.52 28.7,40.81 31.27,41.08 31.81,43.62 32.87,41.25 35.45,41.52 " style="stroke: none; stroke-width: 1; stroke-dasharray: none; stroke-linecap: butt; stroke-linejoin: miter; stroke-miterlimit: 10; fill: rgb(255,255,255); fill-rule: nonzero; opacity: 1;" transform="  matrix(1 0 0 1 0 0) "/>
  <polygon points="26.5,45.09 26.69,42.5 25.02,44.48 22.61,43.51 23.99,45.71 22.32,47.7 24.84,47.07 26.21,49.27 26.39,46.69 28.91,46.06 " style="stroke: none; stroke-width: 1; stroke-dasharray: none; stroke-linecap: butt; stroke-linejoin: miter; stroke-miterlimit: 10; fill: rgb(255,255,255); fill-rule: nonzero; opacity: 1;" transform="  matrix(1 0 0 1 0 0) "/>
  <polygon points="21.72,52.47 21.01,49.97 20.12,52.41 17.53,52.32 19.57,53.92 18.69,56.35 20.84,54.9 22.88,56.5 22.17,54.01 24.32,52.56 " style="stroke: none; stroke-width: 1; stroke-dasharray: none; stroke-linecap: butt; stroke-linejoin: miter; stroke-miterlimit: 10; fill: rgb(255,255,255); fill-rule: nonzero; opacity: 1;" transform="  matrix(1 0 0 1 0 0) "/>
  </g>
</svg>